<svg width="32" height="32" viewBox="0 0 32 32" fill="none" xmlns="http://www.w3.org/2000/svg">
<g clip-path="url(#clip0_1320_4558)">
<path opacity="0.998" fill-rule="evenodd" clip-rule="evenodd" d="M6.21875 -0.03125C6.94793 -0.03125 7.67706 -0.03125 8.40625 -0.03125C8.87481 0.177193 9.17693 0.53136 9.3125 1.03125C9.34375 2.01019 9.35418 2.98936 9.34375 3.96875C9.29181 4.97884 9.26056 5.99968 9.25 7.03125C9.09743 7.413 8.837 7.69425 8.46875 7.875C7.74268 7.97213 7.0135 7.99294 6.28125 7.9375C5.76464 7.77506 5.44173 7.43131 5.3125 6.90625C5.28125 5.92731 5.27083 4.94814 5.28125 3.96875C5.27083 2.96853 5.28125 1.96853 5.3125 0.96875C5.43418 0.462076 5.73626 0.128742 6.21875 -0.03125Z" fill="#D26619"/>
<path opacity="0.999" fill-rule="evenodd" clip-rule="evenodd" d="M23.5313 -0.03125C24.2604 -0.03125 24.9896 -0.03125 25.7188 -0.03125C26.2013 0.128742 26.5033 0.462076 26.625 0.96875C26.6563 1.96853 26.6667 2.96853 26.6563 3.96875C26.6667 4.92731 26.6563 5.88564 26.625 6.84375C26.5232 7.40387 26.2003 7.7685 25.6563 7.9375C24.9688 7.97919 24.2813 7.97919 23.5938 7.9375C23.1401 7.75475 22.838 7.43181 22.6875 6.96875C22.6769 5.95801 22.6457 4.95801 22.5938 3.96875C22.5833 2.98936 22.5938 2.01019 22.625 1.03125C22.7606 0.53136 23.0627 0.177193 23.5313 -0.03125Z" fill="#D26619"/>
<path opacity="0.999" fill-rule="evenodd" clip-rule="evenodd" d="M5.28125 3.96876C5.27084 4.94815 5.28126 5.92732 5.3125 6.90626C5.44173 7.43132 5.76464 7.77507 6.28125 7.93751C7.0135 7.99295 7.74269 7.97214 8.46875 7.87501C8.837 7.69426 9.09744 7.41301 9.25 7.03126C9.26056 5.99969 9.29181 4.97886 9.34375 3.96876C13.7604 3.96876 18.1771 3.96876 22.5938 3.96876C22.6457 4.95802 22.6769 5.95802 22.6875 6.96876C22.838 7.43182 23.1401 7.75476 23.5938 7.93751C24.2812 7.9792 24.9688 7.9792 25.6562 7.93751C26.2003 7.76851 26.5232 7.40389 26.625 6.84376C26.6562 5.88566 26.6667 4.92732 26.6562 3.96876C28.1091 3.71239 29.4216 4.01447 30.5938 4.87501C31.2871 5.52272 31.7454 6.30395 31.9688 7.21876C31.9688 8.82295 31.9688 10.4271 31.9688 12.0313C21.3021 12.0313 10.6354 12.0313 -0.03125 12.0313C-0.03125 10.4271 -0.03125 8.82295 -0.03125 7.21876C0.394959 5.4905 1.47829 4.41758 3.21875 4.00001C3.90594 3.96877 4.59344 3.95836 5.28125 3.96876Z" fill="#D75944"/>
<path fill-rule="evenodd" clip-rule="evenodd" d="M-0.03125 12.0312C10.6354 12.0312 21.3021 12.0312 31.9688 12.0312C31.9688 17.5938 31.9688 23.1562 31.9688 28.7188C31.5241 30.4759 30.4199 31.5593 28.6562 31.9688C20.1979 31.9688 11.7396 31.9688 3.28125 31.9688C1.51761 31.5593 0.413444 30.4759 -0.03125 28.7188C-0.03125 23.1562 -0.03125 17.5938 -0.03125 12.0312Z" fill="#F3DAB7"/>
<path fill-rule="evenodd" clip-rule="evenodd" d="M22.0312 16.2812C22.9604 16.2626 23.5021 16.7105 23.6562 17.6249C23.6292 17.8773 23.5564 18.1168 23.4375 18.3437C20.8246 21.0191 18.1892 23.6753 15.5312 26.3124C14.7677 26.8407 14.0906 26.7469 13.5 26.0312C12.2138 24.2714 10.943 22.5006 9.6875 20.7187C9.52343 19.7335 9.92968 19.1501 10.9062 18.9687C11.4186 18.9696 11.8248 19.1779 12.125 19.5937C12.9984 20.8108 13.8837 22.0191 14.7812 23.2187C16.9991 21.0321 19.2075 18.8341 21.4062 16.6249C21.6104 16.4918 21.8187 16.3773 22.0312 16.2812Z" fill="#D75944"/>
</g>
<defs>
<clipPath id="clip0_1320_4558">
<rect width="32" height="32" fill="white"/>
</clipPath>
</defs>
</svg>
