<svg width="25" height="25" viewBox="0 0 25 25" fill="none" xmlns="http://www.w3.org/2000/svg">
<path d="M21.5 12.5C21.5 17.4706 17.4706 21.5 12.5 21.5C11.3029 21.5 10.1603 21.2663 9.11549 20.8419C8.91552 20.7607 8.81554 20.7201 8.73472 20.702C8.65566 20.6843 8.59715 20.6778 8.51613 20.6778C8.4333 20.6778 8.34309 20.6928 8.16265 20.7229L4.60476 21.3159C4.23218 21.378 4.04589 21.409 3.91118 21.3512C3.79328 21.3007 3.69933 21.2067 3.64876 21.0888C3.59098 20.9541 3.62203 20.7678 3.68413 20.3952L4.27711 16.8374C4.30718 16.6569 4.32222 16.5667 4.32221 16.4839C4.3222 16.4028 4.31572 16.3443 4.298 16.2653C4.27988 16.1845 4.23927 16.0845 4.15806 15.8845C3.73374 14.8397 3.5 13.6971 3.5 12.5C3.5 7.52944 7.52944 3.5 12.5 3.5C17.4706 3.5 21.5 7.52944 21.5 12.5Z" stroke="black" stroke-opacity="0.55" stroke-width="1.5" stroke-linecap="round" stroke-linejoin="round"/>
</svg>
