<svg width="32" height="32" viewBox="0 0 32 32" fill="none" xmlns="http://www.w3.org/2000/svg">
<path d="M26.0465 16.0001C26.0458 17.411 25.7471 18.8059 25.17 20.0935C24.5929 21.3811 23.7504 22.5322 22.6977 23.4717C22.1488 23.9474 21.7721 24.5909 21.626 25.3024C21.5964 25.4544 21.5815 25.6089 21.5814 25.7638V27.907C21.5818 28.4447 21.4762 28.9771 21.2706 29.4738C21.0651 29.9706 20.7636 30.422 20.3834 30.8021C20.0033 31.1823 19.5519 31.4838 19.0552 31.6893C18.5584 31.8949 18.026 32.0005 17.4884 32.0001H14.5116C13.974 32.0005 13.4416 31.8949 12.9448 31.6893C12.4481 31.4838 11.9967 31.1823 11.6165 30.8021C11.2364 30.422 10.9349 29.9706 10.7294 29.4738C10.5238 28.9771 10.4182 28.4447 10.4186 27.907V25.9126C10.4191 25.7084 10.4042 25.5044 10.3739 25.3024C10.2635 24.65 9.93879 24.0529 9.45115 23.6057C8.17578 22.5072 7.19696 21.1058 6.60467 19.5303C6.01238 17.9548 5.82561 16.2556 6.06154 14.5891C6.29747 12.9225 6.94852 11.342 7.95486 9.99275C8.96119 8.64353 10.2905 7.5689 11.8207 6.86764C13.3508 6.16638 15.0327 5.86099 16.7117 5.97953C18.3907 6.09807 20.013 6.63675 21.4294 7.54604C22.8458 8.45534 24.011 9.70608 24.8178 11.1833C25.6246 12.6606 26.0471 14.3169 26.0465 16.0001Z" fill="#EDD06B"/>
<path d="M16.0001 5.20931C15.704 5.20931 15.4201 5.0917 15.2107 4.88235C15.0014 4.67301 14.8838 4.38908 14.8838 4.09303V1.11628C14.8838 0.820224 15.0014 0.536294 15.2107 0.326951C15.4201 0.117608 15.704 0 16.0001 0C16.2961 0 16.5801 0.117608 16.7894 0.326951C16.9987 0.536294 17.1163 0.820224 17.1163 1.11628V4.09303C17.1163 4.38908 16.9987 4.67301 16.7894 4.88235C16.5801 5.0917 16.2961 5.20931 16.0001 5.20931Z" fill="#EDD06B"/>
<path d="M24.4197 8.69653C24.1991 8.69633 23.9835 8.63076 23.8001 8.50809C23.6167 8.38541 23.4738 8.21115 23.3894 8.00729C23.305 7.80344 23.2828 7.57915 23.3258 7.36274C23.3688 7.14633 23.475 6.94752 23.6309 6.79141L25.7355 4.68834C25.9481 4.49823 26.2255 4.39675 26.5106 4.40473C26.7958 4.41271 27.067 4.52955 27.2687 4.73125C27.4704 4.93295 27.5873 5.20421 27.5953 5.48935C27.6032 5.77448 27.5018 6.05186 27.3117 6.26452L25.2101 8.37057C25.1063 8.47423 24.983 8.55638 24.8474 8.61232C24.7118 8.66825 24.5664 8.69687 24.4197 8.69653Z" fill="#EDD06B"/>
<path d="M30.8837 17.1163H27.9069C27.6109 17.1163 27.3269 16.9987 27.1176 16.7894C26.9083 16.5801 26.7906 16.2961 26.7906 16.0001C26.7906 15.704 26.9083 15.4201 27.1176 15.2107C27.3269 15.0014 27.6109 14.8838 27.9069 14.8838H30.8837C31.1797 14.8838 31.4637 15.0014 31.673 15.2107C31.8823 15.4201 32 15.704 32 16.0001C32 16.2961 31.8823 16.5801 31.673 16.7894C31.4637 16.9987 31.1797 17.1163 30.8837 17.1163Z" fill="#EDD06B"/>
<path d="M7.58025 8.69653C7.43376 8.69692 7.28864 8.66832 7.15326 8.61238C7.01787 8.55643 6.89489 8.47425 6.79141 8.37057L4.68834 6.26452C4.49823 6.05186 4.39675 5.77449 4.40473 5.48935C4.41271 5.20421 4.52955 4.93295 4.73125 4.73125C4.93295 4.52955 5.20421 4.41271 5.48935 4.40473C5.77449 4.39675 6.05186 4.49823 6.26453 4.68834L8.36908 6.79141C8.525 6.94752 8.63116 7.14633 8.67415 7.36274C8.71714 7.57915 8.69504 7.80344 8.61063 8.00729C8.52622 8.21115 8.3833 8.38542 8.1999 8.50809C8.01651 8.63076 7.80088 8.69633 7.58025 8.69653Z" fill="#EDD06B"/>
<path d="M4.09303 17.1163H1.11628C0.820224 17.1163 0.536294 16.9987 0.326951 16.7894C0.117608 16.5801 0 16.2961 0 16.0001C0 15.704 0.117608 15.4201 0.326951 15.2107C0.536294 15.0014 0.820224 14.8838 1.11628 14.8838H4.09303C4.38908 14.8838 4.67301 15.0014 4.88235 15.2107C5.0917 15.4201 5.20931 15.704 5.20931 16.0001C5.20931 16.2961 5.0917 16.5801 4.88235 16.7894C4.67301 16.9987 4.38908 17.1163 4.09303 17.1163Z" fill="#EDD06B"/>
<path d="M16.0001 27.535C15.704 27.535 15.4201 27.4174 15.2107 27.2081C15.0014 26.9987 14.8838 26.7148 14.8838 26.4187V21.9536C14.8837 21.807 14.9125 21.6619 14.9687 21.5265C15.0249 21.3911 15.1073 21.2682 15.2112 21.1648L18.188 18.188C18.3996 17.9908 18.6795 17.8835 18.9687 17.8886C19.2579 17.8937 19.5338 18.0109 19.7383 18.2154C19.9428 18.4199 20.06 18.6958 20.0651 18.985C20.0702 19.2742 19.9628 19.5541 19.7657 19.7657L17.1163 22.4165V26.4187C17.1163 26.7148 16.9987 26.9987 16.7894 27.2081C16.5801 27.4174 16.2961 27.535 16.0001 27.535Z" fill="#D68050"/>
<path d="M16 23.0699C15.8534 23.0703 15.7082 23.0415 15.5727 22.9853C15.4373 22.9291 15.3144 22.8465 15.2112 22.7424L12.2344 19.7657C12.0372 19.5541 11.9299 19.2742 11.935 18.985C11.9401 18.6958 12.0572 18.4199 12.2618 18.2154C12.4663 18.0109 12.7422 17.8937 13.0314 17.8886C13.3206 17.8835 13.6005 17.9908 13.8121 18.188L16.7888 21.1648C16.9448 21.3209 17.0509 21.5197 17.0939 21.7361C17.1369 21.9525 17.1148 22.1768 17.0304 22.3807C16.946 22.5845 16.803 22.7588 16.6197 22.8814C16.4363 23.0041 16.2206 23.0697 16 23.0699Z" fill="#D68050"/>
<path d="M21.626 25.3022C21.5964 25.4543 21.5815 25.6088 21.5814 25.7636V27.9069C21.5817 28.4445 21.4761 28.9769 21.2706 29.4737C21.065 29.9705 20.7636 30.4218 20.3834 30.802C20.0033 31.1821 19.5519 31.4836 19.0551 31.6892C18.5584 31.8947 18.0259 32.0003 17.4883 31.9999H14.5116C13.974 32.0003 13.4415 31.8947 12.9448 31.6892C12.448 31.4836 11.9966 31.1821 11.6165 30.802C11.2363 30.4218 10.9349 29.9705 10.7293 29.4737C10.5238 28.9769 10.4182 28.4445 10.4186 27.9069V25.9125C10.419 25.7082 10.4041 25.5042 10.3739 25.3022H21.626Z" fill="#D68050"/>
</svg>
