<svg width="25" height="25" viewBox="0 0 25 25" fill="none" xmlns="http://www.w3.org/2000/svg">
<path fill-rule="evenodd" clip-rule="evenodd" d="M21.6666 11.0651V18.3C21.6666 19.4201 21.6666 19.9801 21.4486 20.408C21.2569 20.7843 20.9509 21.0903 20.5746 21.282C20.1468 21.5 19.5867 21.5 18.4666 21.5H6.86663C5.74652 21.5 5.18647 21.5 4.75864 21.282C4.38232 21.0903 4.07636 20.7843 3.88461 20.408C3.66663 19.9801 3.66663 19.4201 3.66663 18.3V11.0651C3.66663 10.4907 3.66663 10.2035 3.74065 9.93905C3.80623 9.70478 3.91399 9.48444 4.05865 9.28886C4.22196 9.06806 4.44865 8.89175 4.90202 8.53912L11.6843 3.264C12.0356 2.99075 12.2113 2.85412 12.4053 2.8016C12.5764 2.75526 12.7568 2.75526 12.928 2.8016C13.1219 2.85412 13.2976 2.99075 13.6489 3.264L20.4312 8.53913L20.4313 8.53915C20.8846 8.89175 21.1113 9.06806 21.2746 9.28886C21.4193 9.48444 21.527 9.70478 21.5926 9.93905C21.6666 10.2035 21.6666 10.4907 21.6666 11.0651ZM17.4166 18.5001C17.4166 18.0859 17.0808 17.7501 16.6666 17.7501H8.66663C8.25241 17.7501 7.91663 18.0859 7.91663 18.5001C7.91663 18.9143 8.25241 19.2501 8.66663 19.2501H16.6666C17.0808 19.2501 17.4166 18.9143 17.4166 18.5001Z" fill="#36B295"/>
</svg>
