<svg width="29" height="30" viewBox="0 0 29 30" fill="none" xmlns="http://www.w3.org/2000/svg">
<path d="M7.50652 14.0076C7.43292 13.5333 7.39473 13.0473 7.39473 12.5525C7.39473 7.32035 11.6641 3.07886 16.9307 3.07886C22.1973 3.07886 26.4666 7.32035 26.4666 12.5525C26.4666 13.7344 26.2488 14.8658 25.8508 15.9091C25.7681 16.1258 25.7268 16.2342 25.708 16.3187C25.6894 16.4026 25.6823 16.4615 25.6802 16.5473C25.6782 16.634 25.6899 16.7294 25.7134 16.9202L26.1902 20.7928C26.2418 21.212 26.2676 21.4216 26.1978 21.574C26.1367 21.7075 26.0282 21.8136 25.8933 21.8716C25.7394 21.9378 25.5304 21.9072 25.1125 21.8459L21.3405 21.293C21.1436 21.2641 21.0451 21.2497 20.9554 21.2502C20.8667 21.2507 20.8053 21.2573 20.7184 21.2755C20.6307 21.294 20.5185 21.336 20.2943 21.42C19.2483 21.8118 18.1147 22.0261 16.9307 22.0261C16.4355 22.0261 15.9491 21.9886 15.4742 21.9163M9.3269 26.7629C12.8379 26.7629 15.6842 23.8469 15.6842 20.2498C15.6842 16.6527 12.8379 13.7367 9.3269 13.7367C5.81585 13.7367 2.96959 16.6527 2.96959 20.2498C2.96959 20.9729 3.0846 21.6684 3.2969 22.3183C3.38664 22.593 3.43151 22.7304 3.44623 22.8242C3.46161 22.9222 3.4643 22.9772 3.45858 23.0762C3.45309 23.171 3.42937 23.2782 3.38192 23.4925L2.65796 26.7629L6.20442 26.2786C6.39799 26.2522 6.49478 26.2389 6.5793 26.2395C6.66829 26.2401 6.71552 26.2449 6.8028 26.2623C6.88569 26.2789 7.00891 26.3224 7.25536 26.4093C7.90468 26.6385 8.60161 26.7629 9.3269 26.7629Z" stroke="#121212" stroke-width="1.77631" stroke-linecap="round" stroke-linejoin="round"/>
</svg>
