<svg width="21" height="21" viewBox="0 0 21 21" fill="none" xmlns="http://www.w3.org/2000/svg">
<path d="M11.9999 18.1766H8.58809M15.4116 7.08835C15.4116 5.73107 14.8724 4.42937 13.9127 3.46963C12.9529 2.50988 11.6513 1.9707 10.294 1.9707C8.93668 1.9707 7.63499 2.50988 6.67525 3.46963C5.7155 4.42937 5.17632 5.73107 5.17632 7.08835C5.17632 9.7241 4.51143 11.5287 3.76868 12.7224C3.14217 13.7292 2.82891 14.2327 2.84039 14.3731C2.85311 14.5286 2.88606 14.5879 3.01137 14.6809C3.12454 14.7648 3.63471 14.7648 4.65505 14.7648H15.9329C16.9532 14.7648 17.4634 14.7648 17.5766 14.6809C17.7019 14.5879 17.7348 14.5286 17.7475 14.3731C17.759 14.2327 17.4458 13.7292 16.8193 12.7224C16.0765 11.5287 15.4116 9.7241 15.4116 7.08835Z" stroke="black" stroke-width="1.27941" stroke-linecap="round" stroke-linejoin="round"/>
</svg>
