<svg width="21" height="23" viewBox="0 0 21 23" fill="none" xmlns="http://www.w3.org/2000/svg">
<path d="M7.89504 18.8711L8.47949 20.1856C8.65323 20.5768 8.93676 20.9093 9.29571 21.1426C9.65466 21.3759 10.0736 21.5001 10.5017 21.5C10.9298 21.5001 11.3488 21.3759 11.7077 21.1426C12.0667 20.9093 12.3502 20.5768 12.5239 20.1856L13.1084 18.8711C13.3164 18.4047 13.6664 18.0159 14.1084 17.76C14.5532 17.5034 15.0677 17.3941 15.5784 17.4478L17.0084 17.6C17.434 17.645 17.8636 17.5656 18.2451 17.3713C18.6265 17.1771 18.9434 16.8763 19.1573 16.5056C19.3714 16.135 19.4735 15.7103 19.451 15.2829C19.4285 14.8555 19.2825 14.4438 19.0306 14.0978L18.1839 12.9344C17.8825 12.5171 17.7214 12.0148 17.7239 11.5C17.7238 10.9866 17.8864 10.4864 18.1884 10.0711L19.035 8.90778C19.2869 8.56175 19.433 8.15007 19.4554 7.72267C19.4779 7.29528 19.3759 6.87054 19.1617 6.5C18.9478 6.12923 18.6309 5.82849 18.2495 5.63423C17.8681 5.43997 17.4385 5.36053 17.0128 5.40556L15.5828 5.55778C15.0722 5.61141 14.5576 5.50212 14.1128 5.24556C13.6699 4.98825 13.3199 4.59736 13.1128 4.12889L12.5239 2.81444C12.3502 2.42317 12.0667 2.09072 11.7077 1.8574C11.3488 1.62408 10.9298 1.49993 10.5017 1.5C10.0736 1.49993 9.65466 1.62408 9.29571 1.8574C8.93676 2.09072 8.65323 2.42317 8.47949 2.81444L7.89504 4.12889C7.68797 4.59736 7.33792 4.98825 6.89504 5.24556C6.45026 5.50212 5.93571 5.61141 5.42504 5.55778L3.9906 5.40556C3.56493 5.36053 3.13534 5.43997 2.75391 5.63423C2.37249 5.82849 2.05561 6.12923 1.84171 6.5C1.62753 6.87054 1.52549 7.29528 1.54798 7.72267C1.57046 8.15007 1.7165 8.56175 1.96838 8.90778L2.81504 10.0711C3.11698 10.4864 3.27958 10.9866 3.27949 11.5C3.27958 12.0134 3.11698 12.5137 2.81504 12.9289L1.96838 14.0922C1.7165 14.4382 1.57046 14.8499 1.54798 15.2773C1.52549 15.7047 1.62753 16.1295 1.84171 16.5C2.05582 16.8706 2.37274 17.1712 2.75411 17.3654C3.13548 17.5596 3.56496 17.6392 3.9906 17.5944L5.4206 17.4422C5.93127 17.3886 6.44581 17.4979 6.8906 17.7544C7.33513 18.011 7.68681 18.402 7.89504 18.8711Z" stroke="black" stroke-opacity="0.55" stroke-width="1.5" stroke-linecap="round" stroke-linejoin="round"/>
<path d="M10.4999 14.5C12.1568 14.5 13.4999 13.1569 13.4999 11.5C13.4999 9.84315 12.1568 8.5 10.4999 8.5C8.84307 8.5 7.49992 9.84315 7.49992 11.5C7.49992 13.1569 8.84307 14.5 10.4999 14.5Z" stroke="black" stroke-opacity="0.55" stroke-width="1.5" stroke-linecap="round" stroke-linejoin="round"/>
</svg>
