<svg width="24" height="25" viewBox="0 0 24 25" fill="none" xmlns="http://www.w3.org/2000/svg">
<g clip-path="url(#clip0_1468_1576)">
<path opacity="0.962" fill-rule="evenodd" clip-rule="evenodd" d="M11.3672 2.02351C13.3838 1.85566 14.8448 2.66816 15.75 4.46101C16.4499 6.45408 15.989 8.11815 14.3672 9.45319C13.0971 10.2595 11.7533 10.4001 10.3359 9.87507C8.43493 8.89341 7.64583 7.33871 7.96875 5.21101C8.46249 3.45927 9.59527 2.39677 11.3672 2.02351ZM11.5078 3.47663C13.1217 3.36503 14.1451 4.08378 14.5781 5.63288C14.6779 7.47858 13.8107 8.52544 11.9766 8.77351C10.1424 8.52544 9.27525 7.47858 9.375 5.63288C9.65696 4.48378 10.3679 3.76503 11.5078 3.47663Z" fill="#121212"/>
<path opacity="0.963" fill-rule="evenodd" clip-rule="evenodd" d="M3.21094 5.02322C4.81074 4.86677 5.83416 5.55426 6.28126 7.08572C6.45132 8.4412 5.92791 9.41779 4.71094 10.0154C3.1787 10.4716 2.04589 9.99501 1.31251 8.58572C0.856318 7.05347 1.33288 5.92064 2.74219 5.18728C2.90532 5.13559 3.06157 5.08091 3.21094 5.02322ZM3.39844 6.47634C4.43653 6.41283 4.91307 6.89723 4.82813 7.92947C4.43215 8.74823 3.83059 8.94356 3.02344 8.5154C2.54517 8.03212 2.47486 7.49306 2.81251 6.89822C2.98202 6.71634 3.17733 6.57572 3.39844 6.47634Z" fill="#121212"/>
<path opacity="0.963" fill-rule="evenodd" clip-rule="evenodd" d="M19.7109 5.02322C21.3107 4.86677 22.3342 5.55426 22.7813 7.08572C22.9513 8.4412 22.4279 9.41779 21.2109 10.0154C19.6787 10.4716 18.5459 9.99501 17.8125 8.58572C17.3563 7.05347 17.8329 5.92064 19.2422 5.18728C19.4053 5.13559 19.5616 5.08091 19.7109 5.02322ZM19.8984 6.47634C20.9365 6.41283 21.4131 6.89723 21.3281 7.92947C20.9321 8.74823 20.3306 8.94356 19.5234 8.5154C19.0452 8.03212 18.9749 7.49306 19.3125 6.89822C19.482 6.71634 19.6773 6.57572 19.8984 6.47634Z" fill="#121212"/>
<path opacity="0.981" fill-rule="evenodd" clip-rule="evenodd" d="M23.9766 14.3986C23.9766 16.3986 23.9766 18.3986 23.9766 20.3986C23.8081 20.9341 23.4487 21.2701 22.8984 21.4064C21.3673 21.4299 19.836 21.4377 18.3047 21.4299C18.2284 22.2172 17.8065 22.7094 17.0391 22.9064C13.6641 22.9377 10.2891 22.9377 6.91406 22.9064C6.14663 22.7094 5.72475 22.2172 5.64844 21.4299C4.10148 21.4377 2.55461 21.4299 1.00781 21.4064C0.504037 21.2541 0.160286 20.9338 -0.0234375 20.4455C-0.0234375 18.4299 -0.0234375 16.4142 -0.0234375 14.3986C0.493528 12.5173 1.73572 11.6424 3.70312 11.7736C5.25764 11.6133 6.41386 12.207 7.17188 13.5549C8.09166 12.5675 9.22448 11.9816 10.5703 11.7971C11.5078 11.7658 12.4453 11.7658 13.3828 11.7971C14.7286 11.9816 15.8615 12.5675 16.7812 13.5549C17.2934 12.5992 18.0825 12.0133 19.1484 11.7971C19.8828 11.7658 20.6172 11.7658 21.3516 11.7971C22.7819 12.1102 23.6569 12.9774 23.9766 14.3986ZM3.16406 13.1799C3.76728 13.1459 4.36103 13.2006 4.94531 13.3439C5.68941 13.7223 6.0488 14.3316 6.02344 15.1721C5.87316 15.6873 5.75597 16.2107 5.67188 16.7424C5.61159 17.8353 5.58816 18.929 5.60156 20.0236C4.19531 20.0236 2.78906 20.0236 1.38281 20.0236C1.36199 18.1943 1.38542 16.3662 1.45312 14.5392C1.72995 13.7069 2.30025 13.2538 3.16406 13.1799ZM11.2734 13.1799C11.931 13.169 12.5872 13.1924 13.2422 13.2502C14.7805 13.5387 15.882 14.3902 16.5469 15.8049C16.6789 16.1384 16.7727 16.4822 16.8281 16.8361C16.9013 18.3196 16.9169 19.804 16.875 21.2892C16.8605 21.3486 16.8371 21.4033 16.8047 21.4533C15.1981 21.5075 13.5887 21.531 11.9766 21.5236C10.4141 21.5158 8.85155 21.508 7.28906 21.5002C7.22972 21.4857 7.17502 21.4623 7.125 21.4299C7.07147 20.7454 7.04803 20.0579 7.05469 19.3674C7.05183 18.5227 7.07527 17.6789 7.125 16.8361C7.62563 14.6086 9.00844 13.3898 11.2734 13.1799ZM19.7109 13.1799C20.3142 13.1459 20.9079 13.2006 21.4922 13.3439C22.1561 13.6797 22.5077 14.2188 22.5469 14.9611C22.5703 16.6329 22.5781 18.3048 22.5703 19.9767C21.165 20.0218 19.7588 20.0374 18.3516 20.0236C18.365 18.929 18.3415 17.8353 18.2812 16.7424C18.2235 16.2768 18.1141 15.8237 17.9531 15.383C17.8767 14.1089 18.4626 13.3745 19.7109 13.1799Z" fill="black"/>
</g>
<defs>
<clipPath id="clip0_1468_1576">
<rect width="24" height="24" fill="white" transform="translate(0 0.5)"/>
</clipPath>
</defs>
</svg>
